<?xml version="1.0" encoding="utf-8"?>
<svg viewBox="0 -2 24 24" overflow="visible" xmlns="http://www.w3.org/2000/svg">
  <linearGradient id="a" gradientUnits="userSpaceOnUse" x1="11.999" x2="11.999" y2="20" gradientTransform="matrix(0.997868, 0, 0, 0.997868, 0.051179, -1.998722)">
    <stop offset="0" stop-color="#F0A829"/>
    <stop offset="1" stop-color="#C7671A"/>
  </linearGradient>
  <linearGradient id="b" gradientUnits="userSpaceOnUse" x1="11.999" y1="1" x2="11.999" y2="19" gradientTransform="matrix(0.997868, 0, 0, 0.997868, 0.051179, -1.998722)">
    <stop offset="0" stop-color="#FFEBA8"/>
    <stop offset="1" stop-color="#F8BE27"/>
  </linearGradient>
  <linearGradient id="c" gradientUnits="userSpaceOnUse" x1="11.999" y1="2" x2="11.999" y2="18" gradientTransform="matrix(0.997868, 0, 0, 0.997868, 0.051179, -1.998722)">
    <stop offset="0" stop-color="#FFC30F"/>
    <stop offset="1" stop-color="#F5AE0D"/>
  </linearGradient>
  <linearGradient id="d" gradientUnits="userSpaceOnUse" x1="11.999" x2="11.999" y2="7" gradientTransform="matrix(0.997868, 0, 0, 0.997868, 0.051179, -1.998722)">
    <stop offset="0" stop-color="#F0A829"/>
    <stop offset="1" stop-color="#C7671A"/>
  </linearGradient>
  <linearGradient id="e" gradientUnits="userSpaceOnUse" x1="11.999" y1="1" x2="11.999" y2="6" gradientTransform="matrix(0.997868, 0, 0, 0.997868, 0.051179, -1.998722)">
    <stop offset="0" stop-color="#FFEBA8"/>
    <stop offset="1" stop-color="#F8BE27"/>
  </linearGradient>
  <linearGradient id="f" gradientUnits="userSpaceOnUse" x1="11.999" y1="2" x2="11.999" y2="5" gradientTransform="matrix(0.997868, 0, 0, 0.997868, 0.051179, -1.998722)">
    <stop offset="0" stop-color="#FFC30F"/>
    <stop offset="1" stop-color="#F5AE0D"/>
  </linearGradient>
  <linearGradient id="g" gradientUnits="userSpaceOnUse" x1="11.499" x2="11.499" y2="13.001" gradientTransform="matrix(0.997868, 0, 0, 0.997868, 0.051179, -1.998722)">
    <stop offset="0" stop-color="#8D470D"/>
    <stop offset="1" stop-color="#7C3D09"/>
  </linearGradient>
  <linearGradient id="h" gradientUnits="userSpaceOnUse" x1="11.499" y1="1" x2="11.499" y2="10.935" gradientTransform="matrix(0.997868, 0, 0, 0.997868, 0.051179, -1.998722)">
    <stop offset="0" stop-color="#D58738"/>
    <stop offset="1" stop-color="#AB551F"/>
  </linearGradient>
  <linearGradient id="i" gradientUnits="userSpaceOnUse" x1="11.5" y1="2" x2="11.5" y2="8.871" gradientTransform="matrix(0.997868, 0, 0, 0.997868, 0.051179, -1.998722)">
    <stop offset="0" stop-color="#D0813A"/>
    <stop offset="1" stop-color="#AF551D"/>
  </linearGradient>
  <radialGradient id="gradient-1" cx="7.531" cy="16.5" r="7" gradientUnits="userSpaceOnUse" gradientTransform="matrix(0.912923, 0, 0, 0.912923, 0.002974, 0.089978)">
    <stop offset="0" stop-color="#8BB4F0"/>
    <stop offset="0.077" stop-color="#88B1EF"/>
    <stop offset="0.488" stop-color="#7FA7EC"/>
    <stop offset="1" stop-color="#7CA4EB"/>
  </radialGradient>
  <radialGradient id="gradient-2" cx="7.531" cy="16.5" r="6.486" gradientUnits="userSpaceOnUse" gradientTransform="matrix(0.912923, 0, 0, 0.912923, 0.002974, 0.089978)">
    <stop offset="0" stop-color="#8BB4F0"/>
    <stop offset="0.077" stop-color="#88B1EF"/>
    <stop offset="0.488" stop-color="#7FA7EC"/>
    <stop offset="1" stop-color="#7CA4EB"/>
  </radialGradient>
  <linearGradient id="gradient-3" gradientUnits="userSpaceOnUse" x1="7.465" y1="9.034" x2="7.465" y2="23.966" gradientTransform="matrix(0.912923, 0, 0, 0.912923, 0.002974, 0.089978)">
    <stop offset="0" stop-color="#76A1F0"/>
    <stop offset="1" stop-color="#6B90D5"/>
  </linearGradient>
  <path fill="url(#a)" d="M 1.049 -1.999 L 23.002 -1.999 L 23.002 17.958 L 1.049 17.958 L 1.049 -1.999 Z" style=""/>
  <path fill="url(#b)" d="M 2.046 -1.001 L 22.004 -1.001 L 22.004 16.96 L 2.046 16.96 L 2.046 -1.001 Z" style=""/>
  <path fill="url(#c)" d="M 3.044 -0.003 L 21.006 -0.003 L 21.006 15.962 L 3.044 15.962 L 3.044 -0.003 Z" style=""/>
  <path fill="url(#d)" d="M 0.051 -1.999 L 24 -1.999 L 24 4.986 L 0.051 4.986 L 0.051 -1.999 Z" style=""/>
  <path fill="url(#e)" d="M 1.049 -1.001 L 23.002 -1.001 L 23.002 3.988 L 1.049 3.988 L 1.049 -1.001 Z" style=""/>
  <path fill="url(#f)" d="M 2.046 -0.003 L 22.004 -0.003 L 22.004 2.99 L 2.046 2.99 L 2.046 -0.003 Z" style=""/>
  <path fill="url(#g)" d="M 9.032 -1.999 L 9.032 10.974 L 11.526 8.977 L 14.021 10.974 L 14.021 -1.999" style=""/>
  <path fill="url(#h)" d="M 10.03 -1.001 L 10.03 8.878 L 11.526 7.681 L 13.024 8.878 L 13.024 -1.001" style=""/>
  <path fill="url(#i)" d="M 11.027 -0.003 L 11.027 6.782 L 11.526 6.383 L 12.026 6.883 L 12.026 -0.003" style=""/>
  <path d="M 6.849 21.544 C 0.367 21.27 -1.459 13.875 2.741 10.315 C 4.384 8.854 6.21 8.763 6.94 8.763 C 7.305 8.763 7.671 8.763 7.944 8.854 C 8.218 8.854 8.583 8.945 8.857 9.036 C 9.131 9.128 9.496 9.31 9.77 9.402 L 10.592 9.949 C 10.866 10.132 11.14 10.315 11.322 10.588 C 11.596 10.862 11.779 11.045 11.961 11.319 L 12.509 12.14 C 12.692 12.414 12.783 12.779 12.874 13.053 C 12.966 13.327 13.057 13.692 13.148 14.058 C 13.239 14.423 13.239 14.788 13.239 15.062 C 13.239 15.336 13.239 15.792 13.148 16.066 C 13.057 16.431 13.057 16.705 12.874 17.07 C 12.783 17.344 12.6 17.709 12.509 17.983 L 11.961 18.805 C 11.779 19.079 11.596 19.353 11.322 19.535 C 11.048 19.809 10.866 19.992 10.592 20.174 L 9.77 20.722 C 9.496 20.904 9.131 20.996 8.857 21.087 C 8.583 21.178 8.218 21.27 7.853 21.361 C 7.579 21.544 7.214 21.544 6.849 21.544" fill="url(#gradient-1)" style=""/>
  <path d="M 6.849 21.087 C 0.915 20.813 -0.82 13.966 3.015 10.68 C 4.567 9.31 6.21 9.219 6.849 9.219 C 7.214 9.219 7.488 9.219 7.853 9.31 C 8.127 9.402 8.492 9.402 8.766 9.493 C 9.04 9.584 9.314 9.676 9.588 9.858 C 9.862 10.041 10.135 10.132 10.409 10.315 C 10.683 10.497 10.866 10.68 11.14 10.862 C 11.322 11.045 11.596 11.319 11.687 11.593 C 11.87 11.867 12.053 12.14 12.144 12.414 C 12.235 12.688 12.418 12.962 12.509 13.236 C 12.6 13.51 12.692 13.875 12.692 14.149 C 12.783 14.423 12.783 14.788 12.783 15.153 C 12.783 15.518 12.783 15.792 12.692 16.157 C 12.6 16.431 12.6 16.796 12.509 17.07 C 12.418 17.344 12.326 17.618 12.144 17.892 C 11.961 18.166 11.87 18.44 11.687 18.713 C 11.505 18.987 11.322 19.17 11.14 19.444 C 10.957 19.718 10.683 19.9 10.409 19.992 C 10.135 20.174 9.862 20.357 9.588 20.448 C 9.314 20.631 9.04 20.722 8.766 20.813 C 8.492 20.904 8.127 20.996 7.853 20.996 C 7.488 21.087 7.214 21.087 6.849 21.087" fill="url(#gradient-2)" style=""/>
  <path d="M 5.571 9.949 L 5.571 9.858 C 5.571 9.858 5.48 9.858 5.571 9.949 C 5.48 9.858 5.48 9.949 5.388 9.949 C 5.388 9.858 5.48 9.949 5.571 9.949 C 5.48 9.949 5.571 9.949 5.571 9.949 M 2.741 11.958 L 6.027 11.958 L 6.392 11.867 C 6.392 11.775 6.119 11.775 6.027 11.775 C 6.027 11.684 5.845 11.593 5.936 11.41 L 5.845 11.41 C 5.753 11.319 5.571 11.319 5.48 11.319 C 5.388 11.319 5.297 11.228 5.206 11.136 L 5.023 11.136 C 5.114 11.045 5.114 11.045 4.932 10.954 C 4.932 10.771 5.114 10.68 5.297 10.497 L 5.388 10.497 L 5.297 10.406 C 5.297 10.406 5.388 10.497 5.48 10.406 L 5.48 10.315 C 5.571 10.315 5.571 10.315 5.662 10.223 C 5.571 10.223 5.571 10.132 5.48 10.132 C 5.571 10.132 5.571 10.132 5.662 10.223 C 5.662 10.223 5.753 10.223 5.845 10.132 L 6.027 10.132 L 6.027 10.041 C 6.027 10.041 6.027 10.132 6.119 10.132 C 6.21 10.041 6.21 10.041 6.301 10.041 L 6.301 9.949 L 6.301 9.858 C 6.21 9.858 6.21 9.767 6.119 9.858 L 5.936 10.041 C 5.845 10.041 5.936 9.949 5.936 9.949 C 6.027 9.949 6.027 9.949 5.936 9.858 C 5.845 9.858 5.845 9.949 5.845 9.949 L 5.845 9.858 L 5.753 9.858 L 5.845 9.767 L 5.845 9.676 C 5.753 9.676 5.662 9.767 5.662 9.767 C 5.571 9.767 5.571 9.767 5.571 9.858 L 5.297 10.041 L 5.388 9.949 L 5.023 9.949 C 4.84 10.041 4.84 10.041 4.749 10.132 C 4.749 10.041 4.749 10.041 4.84 10.041 L 4.658 10.041 C 4.749 10.041 4.749 10.041 4.84 9.949 C 4.749 9.949 4.749 9.949 4.749 9.858 L 4.658 9.858 L 4.749 9.767 C 4.749 9.767 4.475 9.858 4.293 9.949 L 4.384 9.949 C 4.475 9.949 4.567 10.041 4.658 9.949 L 4.567 10.132 L 4.384 10.132 L 4.749 10.132 L 4.749 10.041 C 4.749 9.949 4.658 9.858 4.749 9.858 L 4.658 9.858 L 4.658 9.767 C 4.567 9.767 4.475 9.858 4.384 9.858 C 4.11 9.949 3.836 10.223 3.562 10.315 C 3.471 10.406 3.289 10.497 3.197 10.588 L 3.106 10.588 L 2.741 10.862 L 2.923 10.68 L 2.832 10.771 L 2.832 10.862 C 2.832 10.954 2.741 10.954 2.741 11.045 L 2.741 11.136 L 2.832 11.136 L 2.832 11.228 C 2.741 11.228 2.741 11.228 2.741 11.319 C 2.741 11.228 2.741 11.228 2.649 11.319 C 2.649 11.41 2.558 11.41 2.558 11.41 L 2.649 11.41 C 2.649 11.501 2.558 11.501 2.558 11.593 L 2.558 11.775 C 2.558 11.775 2.558 12.049 2.467 12.049 L 2.467 11.958 L 2.467 11.867 L 2.376 11.867 L 2.284 11.958 M 7.579 9.584 L 7.488 9.493 C 7.488 9.584 7.488 9.584 7.579 9.584 C 7.488 9.584 7.488 9.584 7.579 9.584 C 7.488 9.676 7.488 9.676 7.579 9.584 C 7.488 9.676 7.488 9.676 7.579 9.584 C 7.488 9.676 7.579 9.676 7.579 9.584 M 5.388 9.858 C 5.48 9.767 5.48 9.767 5.388 9.858 L 5.388 9.767 L 5.48 9.676 L 5.571 9.584 C 5.48 9.584 5.48 9.676 5.388 9.676 L 5.48 9.584 L 5.388 9.676 C 5.388 9.676 5.48 9.676 5.48 9.584 C 5.48 9.584 5.206 9.676 5.114 9.676 L 5.297 9.676 L 5.114 9.676 L 5.114 9.767 C 5.114 9.767 5.023 9.767 5.023 9.858 L 5.388 9.858 C 5.388 9.949 5.48 9.949 5.48 9.949 C 5.297 9.858 5.297 9.858 5.388 9.858 L 5.297 9.858 L 5.388 9.858 M 7.488 10.132 L 7.397 10.132 L 7.305 10.132 L 7.214 10.041 L 7.123 10.041 C 7.123 9.949 7.032 10.041 7.032 9.949 L 7.123 9.949 C 7.123 9.949 7.032 9.949 7.032 9.858 L 6.94 9.858 L 6.849 9.858 L 6.758 9.858 L 6.666 9.858 L 6.758 9.858 L 6.666 9.767 C 6.666 9.767 6.666 9.858 6.575 9.858 L 6.484 9.858 L 6.575 9.858 C 6.575 9.858 6.575 9.767 6.392 9.858 L 6.301 9.858 L 6.21 9.858 L 6.119 9.858 L 6.119 9.767 L 6.21 9.676 L 6.119 9.676 C 6.027 9.676 5.936 9.767 5.936 9.767 C 5.936 9.767 5.845 9.767 5.845 9.858 C 5.845 9.949 5.936 9.949 5.936 9.949 L 6.119 9.949 C 6.119 9.949 6.21 9.949 6.21 10.041 L 6.301 10.132 L 6.21 10.132 L 6.392 10.132 L 6.392 10.223 L 6.301 10.315 L 6.21 10.315 C 6.21 10.315 6.301 10.315 6.301 10.406 L 6.21 10.406 C 6.119 10.315 6.119 10.406 6.119 10.406 C 6.027 10.406 6.027 10.406 6.027 10.497 L 6.392 10.497 L 6.484 10.588 C 6.484 10.68 6.575 10.588 6.575 10.68 C 6.575 10.68 6.666 10.68 6.666 10.771 L 6.849 10.771 C 6.849 10.68 6.758 10.68 6.666 10.68 C 6.575 10.68 6.575 10.68 6.575 10.588 L 6.666 10.588 L 6.758 10.68 L 6.849 10.68 C 6.849 10.68 6.94 10.68 6.94 10.771 L 6.94 10.68 L 6.849 10.588 C 6.849 10.588 6.849 10.68 6.94 10.68 L 6.849 10.588 C 6.849 10.588 6.758 10.588 6.758 10.497 C 6.758 10.497 6.758 10.406 6.666 10.406 L 6.666 10.315 L 6.758 10.315 C 7.214 10.132 7.214 10.132 7.305 10.223 C 7.305 10.223 7.305 10.315 7.397 10.223 C 7.397 10.315 7.397 10.315 7.488 10.315 L 7.488 10.223 L 7.488 10.132 M 5.845 9.584 C 5.936 9.584 5.845 9.584 5.845 9.584 C 5.845 9.493 5.936 9.493 5.936 9.493 L 5.845 9.493 L 5.753 9.493 L 5.845 9.584 C 5.753 9.493 5.753 9.584 5.753 9.584 C 5.662 9.584 5.662 9.676 5.662 9.676 L 5.662 9.767 L 5.753 9.767 C 5.753 9.676 5.753 9.676 5.845 9.584 C 5.753 9.676 5.845 9.676 5.845 9.584 M 6.21 9.493 C 6.21 9.493 6.119 9.493 6.21 9.493 C 6.119 9.493 6.119 9.493 6.21 9.493 L 6.027 9.493 L 5.936 9.493 C 5.936 9.493 5.936 9.584 5.845 9.584 L 6.027 9.584 L 6.21 9.493 M 5.388 9.493 C 5.48 9.493 5.48 9.493 5.388 9.493 C 5.48 9.493 5.48 9.493 5.388 9.493 C 5.48 9.493 5.48 9.493 5.388 9.493 C 5.48 9.493 5.48 9.493 5.388 9.493 C 5.48 9.493 5.48 9.493 5.388 9.493 C 5.48 9.493 5.388 9.493 5.388 9.493 L 5.206 9.493 C 5.114 9.493 5.114 9.493 5.023 9.584 C 5.023 9.584 4.932 9.584 4.932 9.676 L 4.84 9.676 C 4.84 9.676 4.749 9.676 4.749 9.767 L 4.84 9.767 C 4.932 9.767 4.932 9.676 5.023 9.676 L 5.114 9.676 C 5.297 9.584 5.388 9.584 5.388 9.493 M 6.575 9.402 L 6.392 9.402 L 6.484 9.402 L 6.392 9.493 L 6.575 9.493 C 6.484 9.493 6.484 9.493 6.575 9.402 M 6.21 9.402 C 6.21 9.31 6.21 9.31 6.21 9.402 C 6.21 9.31 6.21 9.31 6.21 9.402 C 6.21 9.31 6.21 9.31 6.21 9.402 C 6.21 9.31 6.21 9.31 6.21 9.402 C 6.21 9.31 6.21 9.31 6.21 9.402 C 6.21 9.31 6.21 9.31 6.21 9.402 C 6.21 9.402 6.119 9.402 6.21 9.402 C 6.119 9.402 6.119 9.402 6.21 9.402 C 6.119 9.31 6.119 9.402 6.21 9.402 C 6.119 9.402 6.119 9.402 6.21 9.402 C 6.119 9.402 6.119 9.402 6.21 9.402 L 6.119 9.402 L 6.027 9.402 L 6.21 9.402 M 5.936 9.402 C 6.027 9.402 6.027 9.402 5.936 9.402 C 6.027 9.402 6.027 9.402 5.936 9.402 C 6.027 9.402 5.936 9.402 5.936 9.402 C 5.936 9.402 6.027 9.402 6.027 9.31 L 5.936 9.402 L 5.845 9.402 L 5.936 9.402 L 5.845 9.402 L 5.936 9.402 L 5.845 9.402 L 5.753 9.402 L 5.662 9.402 L 5.936 9.402 M 6.301 9.31 C 6.392 9.31 6.392 9.31 6.301 9.31 C 6.392 9.31 6.392 9.31 6.301 9.31 M 6.027 9.31 C 6.119 9.31 6.119 9.31 6.027 9.31 C 6.119 9.31 6.119 9.31 6.027 9.31 C 6.119 9.31 6.027 9.31 6.027 9.31 C 5.936 9.31 5.753 9.402 5.753 9.402 L 5.662 9.402 L 5.845 9.402 L 6.027 9.31 M 6.21 9.31 L 6.119 9.31 L 6.21 9.31 M 6.484 9.31 C 6.484 9.219 6.484 9.219 6.484 9.31 C 6.484 9.219 6.484 9.219 6.484 9.31 C 6.484 9.219 6.484 9.219 6.484 9.31 C 6.392 9.31 6.392 9.31 6.484 9.31 M 6.392 9.31 L 6.575 9.31 C 6.484 9.219 6.392 9.31 6.392 9.31 C 6.392 9.219 6.392 9.31 6.392 9.31 M 6.666 9.219 C 6.666 9.219 6.758 9.219 6.666 9.219 C 6.758 9.219 6.666 9.219 6.666 9.219 C 6.666 9.219 6.758 9.219 6.666 9.219 C 6.758 9.219 6.758 9.219 6.666 9.219 C 6.758 9.219 6.758 9.219 6.666 9.219 C 6.758 9.219 6.758 9.219 6.666 9.219 C 6.758 9.219 6.758 9.219 6.666 9.219 C 6.758 9.219 6.758 9.219 6.666 9.219 C 6.758 9.219 6.758 9.219 6.666 9.219 C 6.758 9.219 6.758 9.219 6.666 9.219 C 6.758 9.219 6.758 9.219 6.666 9.219 C 6.758 9.219 6.758 9.219 6.666 9.219 C 6.758 9.219 6.758 9.219 6.666 9.219 C 6.758 9.219 6.758 9.219 6.666 9.219 C 6.758 9.219 6.758 9.219 6.666 9.219 L 6.484 9.219 C 6.575 9.31 6.575 9.31 6.666 9.219 C 6.666 9.31 6.666 9.219 6.666 9.219 M 6.849 9.219 L 6.758 9.219 L 6.849 9.219 C 6.758 9.219 6.758 9.219 6.849 9.219 L 6.758 9.219 L 6.666 9.219 L 6.575 9.219 L 6.758 9.219 C 6.758 9.31 6.758 9.31 6.849 9.219 C 6.758 9.31 6.758 9.31 6.849 9.219 C 6.758 9.31 6.758 9.31 6.849 9.219 C 6.758 9.31 6.849 9.219 6.849 9.219 M 8.218 10.315 C 7.853 9.676 7.397 9.219 6.849 9.219 L 7.123 9.219 L 6.94 9.219 L 6.758 9.219 L 6.849 9.219 L 6.758 9.219 L 6.666 9.219 L 6.758 9.219 L 6.849 9.128 L 6.758 9.128 L 6.666 9.219 L 6.758 9.219 L 6.758 9.128 L 6.849 9.128 C 6.849 9.128 6.758 9.036 6.758 9.128 L 6.94 9.128 C 8.127 10.223 8.127 10.223 8.218 10.315 C 8.127 10.223 8.127 10.223 8.218 10.315 C 8.127 10.315 8.127 10.315 8.218 10.315 C 8.127 10.315 8.127 10.315 8.218 10.315 C 8.127 10.315 8.127 10.315 8.218 10.315 C 8.127 10.315 8.127 10.315 8.218 10.315 C 8.127 10.315 8.127 10.315 8.218 10.315 C 8.127 10.315 8.127 10.315 8.218 10.315 C 8.127 10.315 8.127 10.315 8.218 10.315 C 8.127 10.315 8.127 10.315 8.218 10.315 C 8.127 10.315 8.127 10.315 8.218 10.315 C 8.127 10.315 8.218 10.315 8.218 10.315" fill="#B3E710" style=""/>
  <path d="M 8.583 18.44 L 8.401 18.44 L 8.401 18.531 C 8.401 18.531 8.492 18.531 8.583 18.44 M 8.036 20.265 C 8.31 19.809 8.583 19.17 8.766 18.44 L 8.675 18.44 C 8.583 18.44 8.583 18.531 8.492 18.622 L 8.401 18.622 L 8.401 18.531 L 8.31 18.531 C 8.31 18.531 8.31 18.44 8.401 18.44 L 5.571 18.44 L 5.571 18.713 C 5.662 18.805 5.662 18.713 5.662 18.713 C 5.753 18.805 5.571 18.805 5.571 18.896 L 5.662 18.987 C 5.753 19.079 5.845 19.079 6.21 19.626 C 6.301 19.809 6.575 19.809 6.666 19.9 C 6.758 19.992 6.575 20.174 6.575 20.265 L 6.484 20.265 L 6.575 20.265 C 6.575 20.357 6.666 20.904 6.666 20.904 C 6.666 20.904 6.666 20.996 6.758 20.996 L 6.758 20.904 L 6.849 20.813 C 6.849 20.813 6.94 20.813 7.032 20.722 L 7.032 20.631 C 7.123 20.631 7.214 20.631 7.397 20.448 L 7.305 20.539 C 7.488 20.448 7.488 20.448 7.671 20.265 L 8.036 20.265 M 12.509 16.796 C 12.509 16.796 12.509 16.888 12.509 16.796 C 12.509 16.888 12.509 16.796 12.509 16.796 M 12.783 14.149 C 12.783 13.966 12.692 13.692 12.692 13.51 C 12.692 13.419 12.6 13.419 12.509 13.327 C 12.509 13.327 12.418 13.327 12.235 12.779 C 12.235 12.688 12.235 12.688 12.144 12.688 L 12.144 12.779 L 12.053 12.779 L 11.961 12.871 L 11.961 12.962 C 11.961 12.962 11.961 13.053 11.87 13.053 L 11.779 13.053 C 11.687 13.053 11.687 13.053 11.687 12.962 C 11.687 12.962 11.596 13.419 11.687 13.601 C 11.779 13.875 11.505 13.966 11.505 14.24 C 11.505 14.423 11.414 14.605 11.414 14.879 C 11.505 14.97 11.505 15.518 11.414 15.61 C 11.414 15.61 11.414 15.701 11.505 15.701 L 11.505 15.792 L 11.505 15.701 L 11.505 15.61 L 11.505 15.792 L 11.596 15.883 L 11.687 15.975 L 11.596 15.975 L 11.687 16.157 L 11.687 16.522 C 11.687 16.522 11.87 16.796 11.961 16.796 C 12.053 16.796 12.053 16.614 12.144 16.614 L 12.144 16.522 C 12.235 16.522 12.418 16.34 12.418 16.34 C 12.418 16.34 12.6 16.34 12.6 16.431 L 12.783 16.431 C 12.783 16.522 12.6 16.522 12.6 16.522 L 12.692 16.522 L 12.783 16.614 L 12.692 16.614 C 12.692 16.705 12.6 16.796 12.509 16.888 L 12.509 16.979 C 12.509 16.979 12.509 17.07 12.418 17.162 L 12.418 17.253 C 12.326 17.618 11.961 18.166 11.961 18.166 C 12.053 18.166 12.144 17.892 12.235 17.618 C 12.418 17.344 12.509 17.07 12.6 16.796 C 12.692 16.522 12.783 16.249 12.783 15.883 C 12.874 15.61 12.874 15.244 12.874 14.97 C 12.874 14.788 12.874 14.514 12.783 14.149 M 12.235 12.688 C 12.235 12.779 12.235 12.779 12.326 12.871 C 12.326 12.779 12.326 12.779 12.235 12.688 M 12.053 12.414 C 12.053 12.323 12.053 12.323 12.053 12.414 L 12.053 12.597 C 12.144 12.506 12.144 12.506 12.053 12.414 M 11.961 12.232 C 11.961 12.232 11.961 12.14 11.961 12.232 C 11.961 12.323 12.053 12.323 12.053 12.323 L 11.961 12.232 M 12.144 12.414 C 12.144 12.414 12.053 12.414 12.144 12.414 L 12.053 12.323 C 12.053 12.323 11.87 11.958 11.779 11.958 L 11.505 11.958 L 11.505 12.049 C 11.505 12.049 11.596 12.14 11.596 12.232 L 11.505 12.232 C 11.505 12.323 11.414 12.232 11.414 12.232 L 11.322 12.232 L 11.322 12.323 C 11.322 12.323 11.414 12.323 11.414 12.414 C 11.505 12.506 11.505 12.688 11.505 12.779 L 11.505 12.962 L 11.596 12.962 C 11.596 12.962 11.596 13.053 11.687 13.053 C 11.687 13.145 11.779 13.145 11.779 13.145 L 11.779 13.053 L 11.87 13.053 L 11.87 12.962 L 11.87 12.871 L 11.779 12.779 L 11.779 12.597 L 11.779 12.506 L 11.779 12.414 L 11.687 12.323 L 11.687 12.232 C 11.87 11.958 12.144 12.414 12.144 12.414 C 12.144 12.414 12.144 12.506 12.144 12.414 C 12.144 12.506 12.144 12.506 12.144 12.414 C 12.235 12.506 12.235 12.597 12.235 12.597 C 12.235 12.597 12.144 12.506 12.144 12.414 M 11.779 11.867 C 11.779 11.867 11.87 11.958 11.779 11.867 C 11.87 11.958 11.779 11.867 11.779 11.867 M 11.961 12.049 C 11.961 11.958 11.87 11.958 11.87 11.867 C 11.87 11.958 11.87 11.958 11.961 12.049 C 11.87 11.958 11.87 11.958 11.961 12.049 C 11.87 12.049 11.961 12.049 11.961 12.049 M 8.401 11.867 C 8.31 11.867 8.31 11.867 8.31 11.958 C 8.31 11.867 8.31 11.867 8.401 11.867 M 2.467 11.501 C 2.558 11.501 2.467 11.501 2.467 11.501 C 2.467 11.593 2.467 11.593 2.467 11.501 C 2.467 11.593 2.467 11.593 2.467 11.501 M 2.649 11.41 C 2.649 11.319 2.649 11.319 2.649 11.41 L 2.741 11.319 C 2.558 11.319 2.558 11.41 2.649 11.41 C 2.558 11.41 2.558 11.41 2.649 11.41 C 2.558 11.41 2.558 11.41 2.649 11.41 C 2.558 11.41 2.558 11.41 2.649 11.41 C 2.558 11.41 2.558 11.41 2.649 11.41 C 2.558 11.41 2.558 11.41 2.649 11.41 C 2.558 11.41 2.558 11.41 2.649 11.41 M 2.649 11.228 C 2.741 11.136 2.741 11.136 2.649 11.228 C 2.741 11.136 2.741 11.136 2.649 11.228 C 2.741 11.136 2.741 11.136 2.649 11.228 C 2.649 11.136 2.649 11.228 2.649 11.228 M 2.741 11.136 C 2.741 11.045 2.741 11.045 2.741 11.136 C 2.832 11.045 2.832 11.045 2.741 11.136 C 2.832 11.045 2.832 11.045 2.741 11.136 C 2.741 11.045 2.741 11.045 2.741 11.136 C 2.741 11.045 2.741 11.136 2.741 11.136 M 8.218 11.958 L 8.218 11.775 C 8.218 11.775 8.31 11.775 8.218 11.684 L 8.218 11.593 L 8.127 11.593 C 8.036 11.593 8.036 11.684 7.944 11.684 L 7.944 11.593 C 8.036 11.593 8.127 11.501 8.127 11.501 C 7.853 11.41 7.853 11.319 7.853 11.319 C 7.853 11.228 7.853 11.045 7.762 11.045 C 7.762 11.045 7.762 11.136 7.671 11.045 L 7.671 11.136 L 7.762 11.136 C 7.762 11.045 7.671 11.136 7.671 11.045 L 7.579 11.045 L 7.397 10.862 L 7.305 10.954 L 7.305 11.045 C 7.305 10.954 7.305 11.045 7.305 11.045 C 7.305 11.045 7.305 10.954 7.214 10.954 C 7.214 11.045 7.214 11.045 7.123 11.045 C 7.123 10.954 7.032 11.045 6.94 11.045 L 6.94 10.954 L 6.94 11.045 C 6.849 11.045 6.758 10.862 6.758 10.862 L 6.758 10.771 L 6.666 10.68 L 6.575 10.68 C 6.484 10.68 6.484 10.68 6.392 10.588 C 6.392 10.588 6.301 10.588 6.392 10.68 L 6.392 10.862 L 6.301 10.954 C 6.301 11.045 6.484 11.045 6.392 11.228 C 6.392 11.319 6.301 11.593 6.119 11.684 L 6.21 11.958 L 6.484 11.593 C 6.484 11.684 6.392 11.684 6.392 11.775 L 6.301 11.867 C 6.301 11.867 6.21 11.867 6.21 11.775 L 6.119 11.775 L 6.119 11.867 L 8.218 11.867 L 8.127 11.775 C 8.218 11.867 8.218 11.867 8.218 11.775 M 8.218 10.406 C 8.218 10.315 8.218 10.315 8.218 10.406 M 6.21 10.406 L 6.119 10.406 L 6.119 10.315 L 6.027 10.315 L 5.936 10.223 C 5.845 10.315 5.845 10.315 5.845 10.406 C 5.753 10.406 5.753 10.406 5.753 10.497 L 5.845 10.497 L 5.845 10.588 L 6.027 10.588 C 6.119 10.406 6.119 10.406 6.21 10.406 M 6.666 9.949 C 6.666 9.949 6.575 9.949 6.666 9.949 C 6.484 9.949 6.484 10.041 6.575 10.041 C 6.484 10.041 6.575 10.132 6.666 9.949" fill="#B3E710" style=""/>
  <path d="M 7.79 13.109 C 7.79 13.109 7.79 13.012 7.79 13.109 C 7.693 13.012 7.693 13.012 7.79 13.109 C 7.693 13.109 7.693 13.109 7.79 13.109 L 7.693 13.012 L 7.79 12.914 L 7.693 12.914 L 7.595 12.914 L 7.498 12.914 L 7.402 13.012 C 7.402 12.914 7.402 12.914 7.498 12.817 L 7.402 12.817 C 7.207 12.72 7.207 12.72 7.207 12.817 L 7.11 12.817 L 7.207 12.817 C 7.207 12.817 7.11 12.817 7.11 12.914 L 7.11 13.012 L 7.498 13.012 L 7.402 13.109 L 7.498 13.012 L 7.498 13.109 L 7.79 13.109 C 7.693 13.109 7.693 13.206 7.79 13.109 C 7.79 13.206 7.79 13.206 7.79 13.109 C 7.79 13.206 7.79 13.109 7.79 13.109 M 9.735 11.553 C 9.735 11.553 9.638 11.359 9.54 11.456 L 9.54 11.553 L 9.443 11.553 L 9.54 11.553 L 9.54 11.456 C 9.832 11.651 9.832 11.651 9.735 11.553 C 9.735 11.651 9.735 11.651 9.735 11.553 M 9.638 11.456 C 9.638 11.456 9.54 11.456 9.638 11.456 C 9.54 11.456 9.54 11.456 9.638 11.456 C 9.54 11.456 9.638 11.456 9.638 11.456 M 9.929 11.456 C 9.929 11.359 9.929 11.359 9.929 11.456 C 10.027 11.456 10.027 11.456 9.929 11.456 C 10.027 11.456 10.027 11.456 9.929 11.456 C 10.027 11.456 10.027 11.456 9.929 11.456 C 10.027 11.456 10.027 11.456 9.929 11.456 C 10.027 11.456 9.929 11.456 9.929 11.456 M 9.735 11.164 C 9.735 11.261 9.735 11.261 9.735 11.164 C 9.735 11.261 9.735 11.261 9.735 11.164 L 9.832 11.261 L 9.735 11.164 C 9.735 11.261 9.735 11.261 9.735 11.164 C 9.735 11.261 9.735 11.261 9.735 11.164 M 7.595 11.164 C 7.595 11.164 7.498 11.164 7.595 11.164 C 7.498 11.164 7.595 11.164 7.595 11.164 M 10.221 11.845 L 10.124 11.748 L 10.221 11.845 L 10.027 11.748 L 9.832 11.553 C 9.638 11.456 9.638 11.359 9.638 11.359 L 9.54 11.261 L 9.443 11.261 C 9.443 11.261 9.443 11.164 9.346 11.164 L 9.443 11.164 L 9.54 11.261 L 9.638 11.359 C 9.638 11.359 9.638 11.456 9.735 11.456 L 9.832 11.553 L 9.929 11.651 L 9.929 11.845 L 10.221 11.845 C 10.124 11.943 10.124 11.943 10.221 11.845 C 10.124 11.943 10.124 11.943 10.221 11.845 C 10.124 11.943 10.124 11.845 10.221 11.845 L 10.124 11.943 L 10.124 12.039 L 10.221 12.039 L 10.221 11.845 C 10.221 11.943 10.221 11.943 10.221 11.845 C 10.221 11.943 10.221 11.943 10.221 11.845 C 10.221 11.943 10.221 11.943 10.221 11.845 M 8.082 10.483 L 7.985 10.483 L 7.887 10.483 L 7.79 10.483 L 7.693 10.483 L 7.595 10.483 L 7.498 10.483 L 7.595 10.483 C 7.498 10.483 7.498 10.387 7.402 10.387 L 7.693 10.387 C 7.79 10.387 7.79 10.387 7.79 10.483 L 7.985 10.483 C 8.179 10.58 8.179 10.58 8.082 10.483 C 8.179 10.58 8.179 10.58 8.082 10.483 C 8.179 10.58 8.179 10.483 8.082 10.483 C 8.179 10.483 8.179 10.483 8.082 10.483 C 8.179 10.483 8.082 10.483 8.082 10.483 M 6.818 9.998 C 6.721 9.998 6.721 9.998 6.818 9.998 M 10.221 11.651 C 10.221 11.651 10.124 11.553 10.221 11.651 C 10.124 11.651 10.221 11.651 10.221 11.651 L 10.124 11.553 C 10.124 11.553 10.124 11.651 10.221 11.651 L 10.124 11.553 L 10.027 11.456 L 9.929 11.359 L 9.832 11.359 L 9.929 11.359 L 10.027 11.456 C 10.124 11.456 10.124 11.553 10.221 11.651 C 10.124 11.651 10.124 11.651 10.221 11.651 C 10.124 11.651 10.124 11.651 10.221 11.651 C 10.221 11.651 10.124 11.651 10.221 11.651 C 10.221 11.651 10.124 11.651 10.221 11.651 C 10.124 11.651 10.124 11.651 10.221 11.651 C 10.124 11.651 10.124 11.651 10.221 11.651 C 10.221 11.748 10.221 11.748 10.221 11.651 C 10.124 11.651 10.124 11.651 10.221 11.651 C 10.124 11.651 10.124 11.651 10.221 11.651 C 10.124 11.748 10.221 11.748 10.221 11.651 C 10.221 11.748 10.221 11.748 10.319 11.943 L 10.416 12.039 L 10.416 12.136 L 10.512 12.233 L 10.61 12.233 L 10.707 12.331 L 10.901 12.525 L 11.193 12.525 C 11.096 12.428 11.096 12.331 10.999 12.233 C 10.707 12.136 10.416 11.845 10.221 11.651 M 8.666 10.483 L 8.082 10.192 L 8.374 10.192 C 8.374 10.192 8.471 10.192 8.471 10.29 C 8.568 10.483 8.666 10.483 8.666 10.483 C 8.666 10.58 8.666 10.58 8.666 10.483 C 8.763 10.58 8.86 10.58 8.86 10.58 C 8.86 10.58 8.958 10.58 8.958 10.678 L 9.054 10.678 L 9.151 10.775 L 9.248 10.872 L 9.346 10.872 C 9.346 10.872 9.443 10.872 9.443 10.97 L 9.54 11.067 L 9.346 10.872 L 9.443 10.872 L 9.54 10.97 L 9.638 11.067 L 9.735 11.164 L 9.832 11.261 L 9.735 11.164 L 9.638 11.067 L 9.346 10.775 C 9.248 10.872 8.958 10.678 8.666 10.483 M 6.526 9.9 C 6.526 9.9 6.429 9.9 6.526 9.9 C 6.429 9.9 6.526 9.9 6.526 9.9 M 6.429 9.9 C 6.332 9.9 6.332 9.9 6.429 9.9 M 6.234 9.803 C 6.137 9.803 6.137 9.803 6.234 9.803 C 6.137 9.803 6.234 9.803 6.234 9.803 M 6.137 9.803 C 6.04 9.803 6.04 9.803 6.137 9.803 C 6.04 9.803 6.04 9.803 6.137 9.803 C 6.04 9.803 6.137 9.803 6.137 9.803 M 6.04 9.803 C 6.04 9.803 5.944 9.803 6.04 9.803 C 5.944 9.803 5.944 9.803 6.04 9.803 C 5.944 9.803 5.944 9.803 6.04 9.803 M 5.944 9.803 C 5.846 9.803 5.846 9.803 5.944 9.803 C 5.846 9.803 5.846 9.803 5.944 9.803 C 5.846 9.803 5.846 9.803 5.944 9.803 C 5.846 9.803 5.944 9.803 5.944 9.803 M 6.137 9.803 L 5.944 9.803 L 6.137 9.803 M 5.846 9.803 C 5.846 9.803 5.749 9.803 5.846 9.803 M 7.207 9.803 L 6.915 9.803 L 6.915 9.998 L 7.013 9.998 C 7.013 9.998 7.207 9.998 7.207 10.095 L 7.207 9.803 L 6.915 9.803 L 6.915 9.9 L 6.915 9.803 L 6.915 9.706 L 7.11 9.803 L 7.305 9.9 L 7.11 9.803 L 6.915 9.706 C 6.721 9.803 7.207 9.9 7.207 9.803 L 7.207 9.9 L 6.915 9.9 L 6.818 9.803 L 6.721 9.706 L 6.818 9.706 L 6.818 9.803 L 6.721 9.803 L 6.818 9.803 L 6.818 9.608 L 7.013 9.608 C 7.013 9.803 7.207 9.9 7.207 9.803 L 6.526 9.803 L 6.234 9.9 L 6.234 9.803 L 6.721 9.706 L 6.721 9.803 L 6.332 9.803 L 6.332 9.9 L 6.332 9.998 L 6.526 9.9 L 6.721 9.9 C 6.721 9.9 6.721 9.998 6.721 9.9 L 6.624 9.9 L 6.526 9.9 L 6.429 9.9 L 6.332 9.9 L 6.332 9.803 L 6.234 9.803 L 6.137 9.803 L 6.04 9.803 L 5.944 9.803 C 6.429 9.803 6.915 10.29 7.305 10.97 L 7.305 10.872 L 7.305 10.678 L 7.305 10.97 C 7.305 10.97 7.402 10.97 7.402 11.067 L 7.305 11.067 L 7.11 11.067 L 7.013 11.067 L 7.013 10.872 L 7.498 10.678 L 7.498 11.067 L 7.693 11.067 C 7.693 11.067 7.79 11.067 7.693 11.067 L 7.79 11.067 L 7.79 10.678 L 7.498 10.678 L 7.498 10.97 L 7.402 10.97 L 7.305 10.872 L 7.79 10.872 L 7.498 10.872 L 7.305 10.872 L 7.498 10.872 L 7.207 10.872 L 7.693 10.872 L 7.207 10.775 L 7.498 10.775 L 7.498 10.872 C 7.498 10.872 7.498 10.97 7.402 10.97 L 7.11 10.872 L 7.11 10.775 C 7.11 10.775 7.207 10.775 7.207 10.678 L 7.013 10.678 L 7.207 10.97 L 7.207 10.775 L 7.305 10.872 L 7.305 10.775 L 7.305 10.678 L 7.207 10.678 L 7.013 10.678 L 7.013 10.775 L 7.207 10.775 C 7.207 10.775 7.305 10.58 7.207 10.58 L 7.207 10.483 C 7.207 10.483 7.207 10.387 7.305 10.483 L 7.305 10.58 L 7.305 10.387 L 7.305 10.095 C 7.207 9.998 7.207 9.803 7.207 9.803 L 7.207 9.998 C 7.207 9.998 7.207 10.095 7.11 10.095 L 7.207 10.192 L 7.11 10.192 L 7.207 10.192 L 7.207 9.803 L 7.013 9.803 L 7.207 9.803 L 7.207 9.9 L 7.207 9.803 L 7.11 9.803 L 7.207 9.803 L 7.207 9.998 L 7.11 9.998 L 7.013 9.9 L 6.915 9.803" fill="#B3E710" style=""/>
  <path d="M 9.496 19.079 L 9.588 18.896 L 9.496 18.896 L 9.405 18.713 L 9.314 18.713 L 9.223 18.622 C 9.223 18.622 9.131 18.622 9.04 18.713 C 9.04 18.713 9.131 18.622 9.04 18.622 L 8.949 18.531 C 8.766 19.261 8.492 19.9 8.218 20.357 L 8.31 20.357 C 8.31 20.357 8.401 20.357 8.401 20.265 L 8.492 20.265 L 8.583 20.174 C 8.583 20.083 8.766 20.083 8.766 19.992 L 8.949 19.809 C 8.949 19.718 9.04 19.718 9.131 19.535 C 9.131 19.535 9.223 19.535 9.223 19.444 L 9.314 19.353 C 9.405 19.261 9.405 19.261 9.496 19.261 C 9.405 19.079 9.496 19.079 9.496 19.079 M 11.687 18.622 C 11.779 18.531 11.779 18.44 11.87 18.348 C 11.322 19.17 10.866 19.535 10.683 19.718 C 10.866 19.535 11.048 19.444 11.231 19.261 C 11.231 19.17 11.505 18.896 11.687 18.622 M 8.583 18.348 L 8.401 18.348 L 8.401 18.44 C 8.492 18.44 8.492 18.44 8.583 18.348 C 8.583 18.44 8.583 18.44 8.583 18.348 M 7.397 17.253 C 7.397 17.253 7.397 17.344 7.397 17.253 C 7.397 17.344 7.397 17.344 7.397 17.253 C 7.397 17.344 7.305 17.344 7.305 17.344 C 7.397 17.344 7.397 17.344 7.397 17.253 C 7.397 17.344 7.397 17.344 7.397 17.253 M 6.21 15.975 C 6.21 15.883 6.027 15.883 6.027 15.883 L 6.119 15.975 C 6.119 16.066 6.119 15.975 6.21 15.975 M 7.488 15.975 C 7.488 15.975 7.397 15.883 7.305 15.975 L 7.305 16.066 C 7.397 15.975 7.488 15.975 7.488 15.975 M 7.214 15.975 C 7.123 15.883 7.032 15.883 7.032 15.883 L 6.94 15.883 L 6.849 15.883 L 6.575 15.883 L 6.666 15.883 L 6.666 15.975 L 6.392 15.975 L 6.484 16.066 L 6.758 16.066 C 6.758 16.066 6.758 16.157 6.849 16.157 C 6.849 16.066 6.849 16.066 6.94 16.066 L 7.032 16.066 C 7.123 15.975 7.123 15.975 7.214 15.975 C 7.123 15.975 7.123 15.975 7.214 15.975 M 6.484 15.701 L 6.301 15.701 C 6.21 15.701 6.119 15.701 6.119 15.61 C 6.119 15.61 6.119 15.518 6.027 15.518 L 5.936 15.518 C 5.845 15.518 5.845 15.518 5.753 15.427 L 5.571 15.427 C 5.48 15.427 5.297 15.427 5.297 15.518 L 5.388 15.518 C 5.571 15.427 5.571 15.427 5.662 15.427 L 5.845 15.427 C 5.936 15.427 5.936 15.427 5.936 15.518 C 6.027 15.518 6.027 15.518 6.027 15.61 C 6.119 15.61 6.119 15.61 6.21 15.701 C 6.21 15.701 6.21 15.792 6.119 15.792 L 6.392 15.792 C 6.392 15.792 6.484 15.792 6.484 15.701 M 6.392 13.784 C 6.392 13.784 6.301 13.692 6.392 13.784 C 6.301 13.692 6.301 13.692 6.392 13.784 C 6.301 13.784 6.392 13.784 6.392 13.784 M 8.127 12.506 C 8.127 12.506 8.036 12.414 8.127 12.506 L 8.036 12.506 L 8.036 12.414 L 7.944 12.414 C 7.944 12.414 7.944 12.506 7.853 12.506 L 7.853 12.597 C 7.944 12.506 8.036 12.506 8.127 12.506 C 8.036 12.506 8.127 12.506 8.127 12.506 M 2.467 12.232 C 2.467 12.14 2.467 12.14 2.467 12.232 C 2.467 12.14 2.467 12.14 2.467 12.232 L 2.467 12.14 L 2.467 12.049 L 2.376 12.049 L 2.376 12.232 C 2.376 12.14 2.376 12.14 2.467 12.232 C 2.376 12.14 2.376 12.14 2.467 12.232 C 2.467 12.14 2.376 12.14 2.467 12.232 C 2.376 12.14 2.376 12.14 2.467 12.232 C 2.376 12.14 2.467 12.232 2.467 12.232 M 8.492 18.166 C 8.401 18.074 8.401 18.074 8.401 17.892 C 8.401 17.892 8.036 17.618 7.944 17.709 L 7.853 17.709 C 7.762 17.618 7.579 17.618 7.488 17.618 L 7.214 17.618 C 7.214 17.435 7.305 17.435 7.123 17.435 L 7.397 17.435 C 7.305 17.435 7.397 17.435 7.305 17.344 L 7.214 17.344 L 7.214 17.253 L 7.305 17.253 L 6.849 17.253 C 6.758 17.253 6.575 17.162 6.484 17.162 L 6.484 17.07 L 6.301 17.162 C 6.301 17.253 6.392 17.253 6.392 17.344 L 6.301 17.344 C 6.21 17.253 6.21 17.253 6.301 17.162 L 6.301 17.07 L 6.392 17.07 L 6.119 17.344 C 6.119 17.344 6.119 17.07 5.936 16.979 L 5.662 16.979 C 5.48 16.979 5.297 16.705 5.388 16.522 L 5.388 16.34 L 5.297 16.34 C 5.297 16.249 5.114 16.34 5.114 16.249 L 4.84 16.249 C 4.932 16.157 4.932 16.157 4.932 15.975 L 4.932 15.883 L 4.932 15.792 L 4.932 15.61 L 5.023 15.61 C 4.84 15.518 4.749 15.61 4.658 15.61 L 4.567 15.61 C 4.567 15.701 4.567 15.61 4.475 15.61 L 4.475 15.883 L 4.11 15.883 C 3.836 15.61 3.836 15.61 3.836 15.518 C 3.836 15.244 3.928 14.788 3.928 14.788 L 3.928 14.697 L 4.019 14.697 C 4.11 14.697 4.11 14.697 4.201 14.605 L 4.201 14.514 L 4.201 14.605 C 4.293 14.605 4.384 14.697 4.475 14.697 L 4.475 14.605 L 4.567 14.697 L 4.658 14.697 L 4.567 14.605 L 4.658 14.605 L 4.749 14.697 L 4.658 14.605 L 4.567 14.605 L 4.84 14.605 L 4.932 14.697 L 5.023 14.697 L 5.206 14.788 L 5.388 14.879 C 5.48 14.697 5.48 14.697 5.48 14.788 L 5.48 14.97 C 5.48 15.062 5.571 15.062 5.571 15.153 L 5.662 14.879 L 5.662 14.697 C 5.753 14.697 5.48 14.423 5.571 14.149 C 5.662 13.966 5.936 13.966 6.119 13.784 L 6.119 13.875 L 6.301 13.875 L 6.21 13.875 L 6.301 13.875 L 6.21 13.784 L 6.301 13.784 L 6.301 13.966 L 6.301 13.875 C 6.301 13.875 6.301 13.784 6.21 13.784 C 6.21 13.784 6.119 13.784 6.119 13.692 L 6.301 13.692 L 6.301 14.058 L 6.119 14.058 L 6.119 13.875 L 6.119 13.784 C 6.119 13.784 6.119 13.966 6.21 13.966 L 6.21 13.784 L 6.21 13.692 L 6.21 14.058 L 6.21 13.601 L 6.21 14.058 L 6.21 13.692 L 6.21 14.149 L 6.119 14.149 L 6.119 13.966 L 6.21 13.875 L 6.21 13.784 L 6.21 14.058 C 6.21 14.058 6.21 13.966 6.21 14.058 L 6.21 13.966 L 6.21 13.875 C 6.392 13.51 6.392 13.236 6.392 13.145 L 6.392 12.871 L 6.392 13.784 L 6.301 13.784 L 6.301 13.419 L 6.392 13.327 C 6.392 13.236 6.484 13.236 6.392 13.145 C 6.484 13.145 6.575 13.053 6.666 13.053 L 6.94 13.053 L 7.032 12.871 L 7.305 12.871 L 7.305 13.053 L 7.032 13.053 L 6.94 12.962 L 7.032 12.962 C 7.032 12.871 7.214 12.871 7.214 12.871 L 7.123 12.871 L 7.032 12.962 L 7.032 12.779 C 7.032 12.779 7.032 12.871 7.032 12.779 L 7.032 12.871 L 7.032 12.779 C 7.032 12.779 7.032 12.871 7.123 12.871 L 7.123 12.962 L 7.123 12.779 L 7.214 12.779 C 7.214 12.779 7.305 12.779 7.305 12.688 L 7.305 13.053 C 7.305 13.053 7.305 12.871 7.214 12.962 L 7.214 12.871 C 7.305 12.871 7.397 12.779 7.397 12.779 L 7.305 12.779 L 6.94 12.779 L 6.94 12.871 L 7.123 12.871 L 7.305 12.688 L 7.397 12.688 L 7.397 12.779 L 7.488 12.779 L 7.579 12.688 L 7.579 12.871 L 7.397 12.779 L 7.305 12.688 L 7.762 12.688 C 7.853 12.688 7.853 12.688 7.944 12.597 L 7.853 12.597 L 7.762 12.597 C 7.762 12.597 7.762 12.779 7.671 12.779 L 7.671 12.962 L 7.671 12.779 L 7.579 12.688 L 7.579 12.962 L 7.305 12.871 L 7.305 12.506 L 7.488 12.506 L 7.397 12.506 C 7.305 12.506 7.214 12.506 7.214 12.414 L 7.305 12.414 L 7.397 12.323 L 7.214 12.323 C 7.214 12.232 7.488 12.232 7.488 12.232 C 7.305 12.049 6.94 12.323 6.849 12.506 C 7.123 11.958 7.488 11.958 7.853 11.958 L 8.127 11.958 L 2.467 11.958 C 2.467 11.958 2.467 12.232 2.376 12.323 L 2.376 12.232 L 2.284 12.232 L 2.284 12.323 C 2.284 12.414 2.193 12.506 2.102 12.688 C 2.102 12.779 2.102 12.779 1.919 13.236 L 1.919 13.419 C 1.919 13.51 2.01 13.692 1.919 13.784 L 2.284 13.784 C 2.284 13.875 1.645 13.875 2.558 13.966 L 1.645 13.966 C 2.558 13.966 2.01 14.514 2.01 14.514 L 2.102 14.514 C 2.102 14.514 2.376 14.97 2.558 15.153 L 2.649 15.062 L 2.649 14.97 C 2.649 14.879 2.558 14.605 2.558 14.605 L 2.558 14.514 C 2.558 14.331 2.467 14.24 2.376 14.058 L 2.376 13.966 L 2.467 13.966 C 2.558 14.697 2.558 14.697 2.832 14.97 L 2.832 15.062 C 2.923 15.244 3.015 15.336 3.106 15.518 L 3.106 15.701 C 3.197 15.883 3.654 16.157 3.654 16.157 C 3.745 16.157 3.836 16.249 3.928 16.249 C 4.019 16.249 4.11 16.157 4.293 16.249 C 4.475 16.34 4.475 16.431 4.658 16.522 L 4.932 16.522 L 4.932 16.431 L 5.023 16.431 C 5.114 16.522 5.206 16.614 5.297 16.614 C 5.297 16.614 5.297 16.705 5.388 16.705 L 5.48 16.705 C 5.48 16.705 5.571 16.705 5.571 16.614 L 5.662 16.705 L 5.48 16.705 L 5.48 17.435 L 5.662 17.435 L 5.662 17.344 L 5.753 17.253 L 5.571 17.162 L 5.388 17.07 L 5.753 17.07 C 5.845 17.07 5.936 17.07 5.936 17.162 L 6.027 17.344 C 6.027 17.344 6.027 17.527 6.119 17.527 L 6.119 17.435 C 6.119 17.435 6.027 17.344 5.936 17.344 L 5.936 17.253 C 5.753 17.253 5.845 17.435 5.753 17.527 L 5.662 17.435 L 5.662 17.618 C 5.753 17.709 5.753 17.892 5.753 17.892 L 5.753 17.983 L 5.662 17.983 L 5.662 18.074 C 5.662 18.074 5.571 18.074 5.571 18.166 L 5.571 18.257 L 8.401 18.257 C 8.31 18.348 8.492 18.257 8.492 18.166" fill="#B3E710" style=""/>
  <path d="M 6.849 8.306 C 3.015 8.306 0.002 11.41 0.002 15.153 C 0.002 18.896 3.015 22 6.849 22 C 10.592 22 13.696 18.987 13.696 15.153 C 13.605 11.41 10.592 8.306 6.849 8.306 Z M 12.509 17.07 C 12.418 17.344 12.326 17.618 12.144 17.892 C 11.961 18.166 11.87 18.44 11.687 18.713 C 11.505 18.987 11.322 19.17 11.14 19.444 C 10.957 19.718 10.683 19.9 10.409 19.992 C 10.135 20.174 9.862 20.357 9.588 20.448 C 9.314 20.631 9.04 20.722 8.766 20.813 C 8.492 20.904 8.127 20.996 7.853 20.996 C 7.488 21.087 7.214 21.087 6.849 21.087 C 0.915 20.813 -0.82 13.966 3.015 10.68 C 4.567 9.31 6.21 9.219 6.849 9.219 C 7.214 9.219 7.488 9.219 7.853 9.31 C 8.127 9.402 8.492 9.402 8.766 9.493 C 9.04 9.584 9.314 9.676 9.588 9.858 C 9.862 10.041 10.135 10.132 10.409 10.315 C 10.683 10.497 10.866 10.68 11.14 10.862 C 11.322 11.045 11.596 11.319 11.687 11.593 C 11.87 11.867 12.053 12.14 12.144 12.414 C 12.235 12.688 12.418 12.962 12.509 13.236 C 12.6 13.51 12.692 13.875 12.692 14.149 C 12.783 14.423 12.783 14.788 12.783 15.153 C 12.783 15.518 12.783 15.792 12.692 16.157 C 12.692 16.431 12.6 16.705 12.509 17.07 Z" fill="url(#gradient-3)" style=""/>
</svg>